<?xml version="1.0" encoding="utf-8"?>
<!-- Generator: Adobe Illustrator 26.0.0, SVG Export Plug-In . SVG Version: 6.00 Build 0)  -->
<svg version="1.1" id="Layer_1" xmlns="http://www.w3.org/2000/svg" xmlns:xlink="http://www.w3.org/1999/xlink" x="0px" y="0px"
	 viewBox="0 0 879.62 465.32" style="enable-background:new 0 0 879.62 465.32;" xml:space="preserve">
<style type="text/css">
	.st0{fill:#F2F2F2;}
	.st1{fill:#ED1C24;}
</style>
<g>
	<g>
		<g>
			<path class="st0" d="M113.81,295.6l0.39-2.21l41.85-236.41H57.14L0,378.18h131.3c22.9-24.92,52.62-52.57,92.52-82.58H113.81z
				 M268.58,295.6c-42.78,29.67-75.41,57.32-100.88,82.58h116.07l79.23-82.58H268.58z"/>
			<path class="st0" d="M725.65,76.01l-16.8,94.73H517.3l2.28-12.54c-39.77,17.89-75.75,35.33-108.36,52.33l-29.8,167.65h99.84
				l21.62-123.88h191.56l-22.09,123.88h98.91L828.4,43.86L725.65,76.01z M531.71,91.35l5.37-29.67l0.86-4.7h-99.4l-8.41,47.35
				l-5.48,30.81l-7.68,43.22c32.76-16.61,68.72-33.67,108.23-51.06L531.71,91.35z"/>
		</g>
		<path class="st1" d="M879.62,0C736.97,40.32,621.14,85.51,536.64,122.27c-3.84,1.69-7.66,3.35-11.45,5.04
			c-39.51,17.39-75.46,34.45-108.23,51.06c-82.86,42-145.32,81.31-193.14,117.23c-39.9,30.01-69.62,57.66-92.52,82.58
			c-22.46,24.48-38.32,46.34-50.78,65.21c-4.44,6.72-7.94,12.3-10.18,15.91c-6.31-8.49-8.8-15.97-9.94-20.87
			c-4.21-17.89,0.96-38.26,14.07-60.25c15.37-25.8,41.69-53.81,76.71-82.58c65.7-54,161.91-110.67,273.46-160.46
			c34.37-15.37,70.22-30.04,107.06-43.79c88.96-33.23,183.82-61.03,278.31-79.44C841.9,5.71,867.44,1.79,879.62,0z"/>
	</g>
	<g>
		<path class="st1" d="M167.14,453.45h19.14v11.28h-33.74v-59.97h14.61V453.45z"/>
		<path class="st1" d="M233.9,461.39c-4.7-2.62-8.43-6.28-11.19-10.98c-2.76-4.7-4.14-9.98-4.14-15.85c0-5.86,1.38-11.13,4.14-15.8
			c2.76-4.67,6.49-8.31,11.19-10.93c4.7-2.62,9.87-3.93,15.5-3.93c5.64,0,10.81,1.31,15.5,3.93c4.7,2.62,8.4,6.26,11.11,10.93
			c2.7,4.67,4.06,9.94,4.06,15.8c0,5.87-1.37,11.15-4.1,15.85c-2.73,4.7-6.44,8.36-11.11,10.98c-4.67,2.62-9.82,3.93-15.46,3.93
			C243.76,465.32,238.6,464.01,233.9,461.39z M260.89,447.21c2.87-3.19,4.31-7.4,4.31-12.64c0-5.3-1.44-9.52-4.31-12.69
			c-2.88-3.16-6.71-4.74-11.49-4.74c-4.84,0-8.7,1.57-11.57,4.7c-2.88,3.13-4.31,7.38-4.31,12.73c0,5.3,1.44,9.53,4.31,12.69
			c2.87,3.16,6.73,4.74,11.57,4.74C254.19,452,258.01,450.4,260.89,447.21z"/>
		<path class="st1" d="M354.64,423.72c-1.08-1.99-2.63-3.52-4.66-4.57c-2.02-1.05-4.4-1.58-7.13-1.58c-4.73,0-8.51,1.55-11.36,4.66
			c-2.85,3.11-4.27,7.25-4.27,12.43c0,5.52,1.49,9.84,4.48,12.94c2.99,3.1,7.1,4.66,12.34,4.66c3.59,0,6.62-0.91,9.1-2.73
			c2.48-1.82,4.28-4.44,5.42-7.86h-18.54V430.9h31.78v13.58c-1.08,3.65-2.92,7.03-5.51,10.17c-2.59,3.13-5.88,5.67-9.87,7.6
			c-3.99,1.94-8.49,2.9-13.5,2.9c-5.92,0-11.21-1.29-15.85-3.89c-4.64-2.59-8.26-6.19-10.85-10.81c-2.59-4.61-3.89-9.88-3.89-15.8
			c0-5.92,1.29-11.2,3.89-15.85c2.59-4.64,6.19-8.26,10.81-10.85c4.61-2.59,9.88-3.89,15.8-3.89c7.18,0,13.23,1.74,18.15,5.21
			c4.93,3.47,8.19,8.29,9.78,14.44H354.64z"/>
		<path class="st1" d="M419.43,461.39c-4.7-2.62-8.43-6.28-11.19-10.98c-2.76-4.7-4.14-9.98-4.14-15.85c0-5.86,1.38-11.13,4.14-15.8
			c2.76-4.67,6.49-8.31,11.19-10.93c4.7-2.62,9.87-3.93,15.5-3.93s10.81,1.31,15.5,3.93c4.7,2.62,8.4,6.26,11.11,10.93
			c2.7,4.67,4.06,9.94,4.06,15.8c0,5.87-1.37,11.15-4.1,15.85c-2.73,4.7-6.44,8.36-11.11,10.98c-4.67,2.62-9.82,3.93-15.46,3.93
			S424.12,464.01,419.43,461.39z M446.42,447.21c2.87-3.19,4.31-7.4,4.31-12.64c0-5.3-1.44-9.52-4.31-12.69
			c-2.88-3.16-6.71-4.74-11.49-4.74c-4.84,0-8.7,1.57-11.57,4.7c-2.88,3.13-4.31,7.38-4.31,12.73c0,5.3,1.44,9.53,4.31,12.69
			c2.87,3.16,6.73,4.74,11.57,4.74C439.71,452,443.54,450.4,446.42,447.21z"/>
		<g>
			<path class="st1" d="M574.98,404.76v59.97h-14.61v-24.69h-22.72v24.69h-14.61v-59.97h14.61v23.49h22.72v-23.49H574.98z"/>
			<path class="st1" d="M640.36,404.76v35.88c0,3.59,0.88,6.35,2.65,8.29c1.76,1.94,4.36,2.9,7.77,2.9s6.04-0.97,7.86-2.9
				c1.82-1.94,2.73-4.7,2.73-8.29v-35.88h14.61v35.79c0,5.35-1.14,9.88-3.42,13.58c-2.28,3.7-5.34,6.49-9.18,8.37
				c-3.84,1.88-8.13,2.82-12.86,2.82c-4.73,0-8.96-0.93-12.69-2.78c-3.73-1.85-6.68-4.64-8.84-8.37c-2.16-3.73-3.25-8.27-3.25-13.62
				v-35.79H640.36z"/>
			<path class="st1" d="M771.44,439.14c2.11,2.71,3.16,5.8,3.16,9.27c0,5.01-1.75,8.98-5.25,11.92c-3.5,2.93-8.39,4.4-14.65,4.4
				h-27.93v-59.97h26.99c6.09,0,10.86,1.4,14.31,4.19c3.45,2.79,5.17,6.58,5.17,11.36c0,3.53-0.93,6.46-2.78,8.8
				c-1.85,2.34-4.31,3.96-7.39,4.87C766.54,434.71,769.33,436.43,771.44,439.14z M741.37,429.02h9.57c2.39,0,4.23-0.53,5.51-1.58
				c1.28-1.05,1.92-2.61,1.92-4.66s-0.64-3.62-1.92-4.7c-1.28-1.08-3.12-1.62-5.51-1.62h-9.57V429.02z M757.81,451.27
				c1.34-1.11,2.01-2.72,2.01-4.83c0-2.11-0.7-3.76-2.09-4.95c-1.4-1.2-3.32-1.79-5.77-1.79h-10.59v13.24h10.76
				C754.58,452.94,756.47,452.38,757.81,451.27z"/>
		</g>
	</g>
</g>
</svg>
